<?xml version="1.0" standalone="yes"?>

<svg version="1.1" viewBox="0.0 0.0 784.4776902887139 741.49343832021" fill="none" stroke="none" stroke-linecap="square" stroke-miterlimit="10" xmlns="http://www.w3.org/2000/svg" xmlns:xlink="http://www.w3.org/1999/xlink"><clipPath id="p.0"><path d="m0 0l784.47766 0l0 741.4934l-784.47766 0l0 -741.4934z" clip-rule="nonzero"></path></clipPath><g clip-path="url(#p.0)"><path fill="#000000" fill-opacity="0.0" d="m0 0l784.47766 0l0 741.4934l-784.47766 0z" fill-rule="nonzero"></path><path fill="#80d0f3" d="m-1100.1497 -32.783466l973.88983 0l0 720.0l-973.88983 0z" fill-rule="nonzero"></path><path stroke="#000000" stroke-width="1.0" stroke-linejoin="round" stroke-linecap="butt" d="m-1100.1497 -32.783466l973.88983 0l0 720.0l-973.88983 0z" fill-rule="nonzero"></path><path fill="#000000" fill-opacity="0.0" d="m722.6877 161.07349l-660.8819 405.6693" fill-rule="nonzero"></path><path stroke="#666666" stroke-width="3.0" stroke-linejoin="round" stroke-linecap="butt" d="m722.6877 161.07349l-660.8819 405.6693" fill-rule="nonzero"></path><path fill="#91f31c" fill-opacity="0.8731" d="m518.4542 355.35522c26.513 -3.9483948 51.26288 -6.3680725 74.968506 -16.982635c23.705627 -10.614563 52.00305 -30.559052 67.26526 -46.704773c15.262146 -16.14569 22.979004 -33.175262 24.3078 -50.16945c1.3287964 -16.994186 -6.3967285 -39.238373 -16.335083 -51.79564c-9.938416 -12.5572815 -26.252075 -20.750122 -43.295227 -23.548004c-17.043152 -2.7978973 -38.964294 -1.1928864 -58.963623 6.760666c-19.999329 7.9535522 -41.923706 23.535095 -61.0325 40.960648c-19.108765 17.425537 -36.272736 40.708847 -53.62018 63.59262c-17.347443 22.88379 -47.56375 59.611023 -50.464478 73.71005c-2.9006958 14.09903 13.531921 10.188019 33.06018 10.884094c19.52826 0.69607544 57.596375 -2.7592163 84.109344 -6.7075806z" fill-rule="nonzero"></path><path fill="#000000" fill-opacity="0.0" d="m373.43307 16.0l28.220459 721.3543" fill-rule="nonzero"></path><path stroke="#666666" stroke-width="3.0" stroke-linejoin="round" stroke-linecap="butt" d="m373.43307 16.0l28.220459 721.3543" fill-rule="nonzero"></path><path fill="#000000" fill-opacity="0.0" d="m0 396.14697l792.53546 -56.409454" fill-rule="nonzero"></path><path stroke="#666666" stroke-width="3.0" stroke-linejoin="round" stroke-linecap="butt" d="m0 396.14697l792.53546 -56.409454" fill-rule="nonzero"></path><path fill="#f32458" fill-opacity="0.8269" d="m327.01944 258.22852c-10.452759 -24.730011 -21.32022 -47.159653 -24.456604 -72.940735c-3.1363525 -25.781067 -0.5044861 -60.32383 5.6383667 -81.74572c6.142853 -21.421883 17.020111 -36.84575 31.21872 -46.78559c14.198608 -9.939842 37.75055 -14.85223 53.97293 -12.853466c16.222351 1.998764 31.964813 11.713058 43.361267 24.846043c11.396423 13.132988 21.49347 32.72033 25.017303 53.95189c3.5238342 21.23156 1.3717041 48.06144 -3.874298 73.43748c-5.2460327 25.376038 -16.647156 52.122375 -27.601807 78.81874c-10.954651 26.69635 -27.290161 71.57428 -38.12613 81.359406c-10.835999 9.785126 -16.031464 -6.3006897 -26.88977 -22.648682c-10.858276 -16.348022 -27.80722 -50.70935 -38.25998 -75.43936z" fill-rule="nonzero"></path><path fill="#f32458" fill-opacity="0.8269" d="m448.98837 484.06226c10.537262 24.693817 21.481323 47.085938 24.705933 72.855835c3.2245789 25.769958 0.710968 60.321167 -5.358429 81.76373c-6.069397 21.442566 -16.893707 36.903442 -31.058044 46.891724c-14.164368 9.988281 -37.699127 14.981201 -53.92807 13.038025c-16.228943 -1.9432373 -32.004425 -11.603455 -43.445618 -24.697205c-11.441223 -13.09375 -21.605164 -32.64624 -25.20163 -53.865417c-3.596466 -21.219116 -1.5362244 -48.05597 3.6228333 -73.449524c5.159088 -25.393616 16.468475 -52.178528 27.331543 -78.91199c10.863098 -26.733429 27.044708 -71.666565 37.847015 -81.48865c10.802307 -9.822052 16.052765 6.2457275 26.966858 22.556305c10.9140625 16.310547 27.980377 50.61331 38.51761 75.30716z" fill-rule="nonzero"></path><path fill="#c72799" fill-opacity="0.8269" d="m509.9042 305.88998c24.00113 -12.037445 45.679596 -24.339386 71.2048 -29.143555c25.525146 -4.804138 60.168762 -4.420685 81.94617 0.31866455c21.777344 4.739319 37.87628 14.592957 48.717957 28.11734c10.841736 13.524353 17.27356 36.709595 16.332275 53.02887c-0.9413452 16.319275 -9.613647 32.660645 -21.97998 44.88678c-12.366333 12.226135 -31.2583 23.574677 -52.218018 28.470062c-20.959656 4.8953857 -47.87494 4.489868 -73.54022 0.90231323c-25.665222 -3.587555 -53.097717 -13.22876 -80.451294 -22.427643c-27.353607 -9.198883 -73.201385 -22.587036 -83.67032 -32.765656c-10.468933 -10.178589 5.246887 -16.408112 20.856659 -28.30597c15.609772 -11.897858 48.800873 -31.043762 72.80197 -43.081207z" fill-rule="nonzero"></path><path fill="#c72799" fill-opacity="0.8269" d="m267.6424 436.85358c-24.030457 11.976135 -45.739044 24.222626 -71.27516 28.961945c-25.536102 4.739319 -60.177124 4.2681885 -81.94146 -0.5260315c-21.764336 -4.7942505 -37.837563 -14.688171 -48.644516 -28.239319c-10.806957 -13.551178 -17.179783 -36.751587 -16.197231 -53.067688c0.98254776 -16.316132 9.695839 -32.634766 22.092525 -44.82904c12.396683 -12.194275 31.316475 -23.494415 52.287575 -28.336548c20.9711 -4.842102 47.88405 -4.368469 73.539 -0.7161255c25.654968 3.6523438 53.06172 13.362518 80.39076 22.630219c27.32901 9.26767 73.14072 22.77124 83.583374 32.97586c10.442688 10.20462 -5.288147 16.394073 -20.927307 28.251862c-15.63916 11.857788 -48.877106 30.918732 -72.90756 42.894867z" fill-rule="nonzero"></path><path fill="#91f31c" fill-opacity="0.8731" d="m313.69934 478.81174c-16.427338 21.166443 -30.660553 41.541412 -51.51288 57.019318c-20.852356 15.477844 -52.073257 30.414185 -73.60118 35.84784c-21.527939 5.433655 -40.12767 3.8666992 -55.566406 -3.2459106c-15.438744 -7.112549 -31.009117 -24.664429 -37.066017 -39.429504c-6.0568924 -14.765076 -5.1920853 -32.957977 0.72462463 -49.160828c5.91671 -16.20285 18.054901 -34.510956 34.775642 -48.056274c16.720734 -13.545288 41.022293 -25.054962 65.54877 -33.215515c24.526459 -8.160522 53.19713 -11.777008 81.61005 -15.747681c28.412903 -3.970642 75.177704 -12.411163 88.86746 -8.076294c13.689758 4.3349 2.2344055 16.741425 -6.728943 34.08557c-8.963348 17.344116 -30.62378 48.812866 -47.051117 69.97928z" fill-rule="nonzero"></path></g></svg>

